<svg width="12" height="12" viewBox="0 0 12 12" fill="none" xmlns="http://www.w3.org/2000/svg">
<path d="M6 1.125C5.03582 1.125 4.09329 1.41091 3.2916 1.94659C2.48991 2.48226 1.86507 3.24363 1.49609 4.13442C1.12711 5.02521 1.03057 6.00541 1.21867 6.95107C1.40678 7.89672 1.87108 8.76536 2.55286 9.44715C3.23464 10.1289 4.10328 10.5932 5.04894 10.7813C5.99459 10.9694 6.97479 10.8729 7.86558 10.5039C8.75637 10.1349 9.51775 9.51009 10.0534 8.7084C10.5891 7.90671 10.875 6.96418 10.875 6C10.8725 4.70783 10.3581 3.46929 9.44441 2.55559C8.53071 1.64189 7.29217 1.12748 6 1.125ZM6.5625 8.25H6.375V8.625C6.375 8.72446 6.33549 8.81984 6.26517 8.89017C6.19484 8.96049 6.09946 9 6 9C5.90055 9 5.80516 8.96049 5.73484 8.89017C5.66451 8.81984 5.625 8.72446 5.625 8.625V8.25H4.875C4.77555 8.25 4.68016 8.21049 4.60984 8.14017C4.53951 8.06984 4.5 7.97446 4.5 7.875C4.5 7.77554 4.53951 7.68016 4.60984 7.60983C4.68016 7.53951 4.77555 7.5 4.875 7.5H6.5625C6.71169 7.5 6.85476 7.44074 6.96025 7.33525C7.06574 7.22976 7.125 7.08668 7.125 6.9375C7.125 6.78832 7.06574 6.64524 6.96025 6.53975C6.85476 6.43426 6.71169 6.375 6.5625 6.375H5.4375C5.08941 6.375 4.75557 6.23672 4.50942 5.99058C4.26328 5.74444 4.125 5.4106 4.125 5.0625C4.125 4.7144 4.26328 4.38056 4.50942 4.13442C4.75557 3.88828 5.08941 3.75 5.4375 3.75H5.625V3.375C5.625 3.27554 5.66451 3.18016 5.73484 3.10984C5.80516 3.03951 5.90055 3 6 3C6.09946 3 6.19484 3.03951 6.26517 3.10984C6.33549 3.18016 6.375 3.27554 6.375 3.375V3.75H7.125C7.22446 3.75 7.31984 3.78951 7.39017 3.85984C7.46049 3.93016 7.5 4.02554 7.5 4.125C7.5 4.22446 7.46049 4.31984 7.39017 4.39016C7.31984 4.46049 7.22446 4.5 7.125 4.5H5.4375C5.28832 4.5 5.14524 4.55926 5.03975 4.66475C4.93427 4.77024 4.875 4.91332 4.875 5.0625C4.875 5.21168 4.93427 5.35476 5.03975 5.46025C5.14524 5.56574 5.28832 5.625 5.4375 5.625H6.5625C6.9106 5.625 7.24444 5.76328 7.49058 6.00942C7.73672 6.25556 7.875 6.5894 7.875 6.9375C7.875 7.2856 7.73672 7.61944 7.49058 7.86558C7.24444 8.11172 6.9106 8.25 6.5625 8.25Z" fill="#7FB2FF"/>
</svg>
