<svg width="12" height="12" viewBox="0 0 12 12" fill="none" xmlns="http://www.w3.org/2000/svg">
<g clip-path="url(#clip0_2_315)">
<path d="M9.61874 9.53436C10.5673 8.5858 11.1002 7.29927 11.1002 5.9578C11.1002 4.61633 10.5673 3.3298 9.61874 2.38124C8.67018 1.43268 7.38365 0.89978 6.04218 0.89978C4.70071 0.89978 3.41418 1.43268 2.46562 2.38124C2.44803 2.39107 2.43219 2.40374 2.41874 2.41874L2.38124 2.46562C1.43268 3.41418 0.89978 4.70071 0.89978 6.04218C0.89978 7.38365 1.43268 8.67018 2.38124 9.61874C3.3298 10.5673 4.61633 11.1002 5.9578 11.1002C7.29927 11.1002 8.5858 10.5673 9.53436 9.61874L9.58124 9.58124L9.61874 9.53436ZM9.93749 5.99999C9.93851 6.85068 9.66203 7.67848 9.14999 8.3578L3.64218 2.8453C4.2275 2.40767 4.92308 2.14157 5.65105 2.07681C6.37902 2.01204 7.11064 2.15115 7.76404 2.47858C8.41743 2.80601 8.9668 3.30882 9.35066 3.93074C9.73452 4.55267 9.93771 5.26915 9.93749 5.99999ZM2.06249 5.99999C2.06044 5.14914 2.33703 4.32102 2.84999 3.64218L8.3578 9.14999C7.67897 9.66295 6.85084 9.93954 5.99999 9.93749C4.95608 9.93625 3.95528 9.52101 3.21713 8.78285C2.47897 8.0447 2.06373 7.0439 2.06249 5.99999Z" fill="#FF7F7F"/>
</g>
<defs>
<clipPath id="clip0_2_315">
<rect width="12" height="12" fill="white"/>
</clipPath>
</defs>
</svg>
