<svg width="16" height="17" viewBox="0 0 16 17" fill="none" xmlns="http://www.w3.org/2000/svg">
<path fill-rule="evenodd" clip-rule="evenodd" d="M10.8834 10.4327L14.47 14.0193C14.5961 14.1455 14.6669 14.3165 14.6668 14.4949C14.6668 14.6732 14.5959 14.8443 14.4697 14.9703C14.3436 15.0964 14.1725 15.1672 13.9941 15.1671C13.8158 15.1671 13.6448 15.0961 13.5187 14.97L9.93205 11.3833C8.85986 12.2138 7.51157 12.6046 6.16147 12.4762C4.81137 12.3479 3.56087 11.71 2.66437 10.6924C1.76787 9.67479 1.29271 8.35387 1.33555 6.99836C1.37839 5.64285 1.93602 4.35457 2.89499 3.3956C3.85396 2.43663 5.14223 1.879 6.49775 1.83616C7.85326 1.79332 9.17418 2.26848 10.1918 3.16498C11.2094 4.06148 11.8473 5.31198 11.9756 6.66208C12.104 8.01218 11.7132 9.36047 10.8827 10.4327H10.8834ZM6.66671 11.1667C7.72758 11.1667 8.745 10.7452 9.49514 9.99509C10.2453 9.24494 10.6667 8.22753 10.6667 7.16666C10.6667 6.10579 10.2453 5.08838 9.49514 4.33823C8.745 3.58809 7.72758 3.16666 6.66671 3.16666C5.60585 3.16666 4.58843 3.58809 3.83829 4.33823C3.08814 5.08838 2.66672 6.10579 2.66672 7.16666C2.66672 8.22753 3.08814 9.24494 3.83829 9.99509C4.58843 10.7452 5.60585 11.1667 6.66671 11.1667Z" fill="#596A83"/>
</svg>
